<svg width="90" height="14" viewBox="0 0 90 14" fill="none" xmlns="http://www.w3.org/2000/svg">
<path d="M12.8571 5.35862H7.95L6.42857 0L4.90714 5.35862H0L3.96429 8.66552L2.46429 14L6.42857 10.6931L10.3929 14L8.87143 8.64138L12.8571 5.35862Z" fill="#F7AB0E"/>
<path d="M32.1428 5.35862H27.2356L25.7142 0L24.1928 5.35862H19.2856L23.2499 8.66552L21.7499 14L25.7142 10.6931L29.6785 14L28.1571 8.64138L32.1428 5.35862Z" fill="#F7AB0E"/>
<path d="M51.4287 5.35862H46.5215L45.0001 0L43.4787 5.35862H38.5715L42.5358 8.66552L41.0358 14L45.0001 10.6931L48.9644 14L47.443 8.64138L51.4287 5.35862Z" fill="#F7AB0E"/>
<path d="M70.7143 5.35862H65.8072L64.2857 0L62.7643 5.35862H57.8572L61.8215 8.66552L60.3215 14L64.2857 10.6931L68.25 14L66.7286 8.64138L70.7143 5.35862Z" fill="#F7AB0E"/>
<path d="M90 5.35862H85.0928L83.5714 0L82.05 5.35862H77.1428L81.1071 8.66552L79.6071 14L83.5714 10.6931L87.5357 14L86.0143 8.64138L90 5.35862Z" fill="#F7AB0E"/>
</svg>
