<svg width="18" height="22" viewBox="0 0 18 22" fill="none" xmlns="http://www.w3.org/2000/svg">
<path d="M9.72135 4.003L8.25535 4C4.91135 3.992 2.00835 6.709 1.98535 10V13.79C1.98535 14.58 1.88535 15.351 1.45435 16.008L1.16735 16.446C0.730354 17.11 1.20035 18 1.98535 18H16.0154C16.8004 18 17.2694 17.11 16.8334 16.446L16.5464 16.008C16.1164 15.351 16.0154 14.579 16.0154 13.789V10.001C15.9754 6.709 13.0654 4.011 9.72135 4.003V4.003Z" stroke="white" stroke-width="2" stroke-linecap="round" stroke-linejoin="round"/>
<path d="M12.0002 18C12.0002 18.7956 11.6842 19.5587 11.1216 20.1213C10.559 20.6839 9.79589 21 9.00024 21C8.20459 21 7.44153 20.6839 6.87892 20.1213C6.31631 19.5587 6.00024 18.7956 6.00024 18" stroke="white" stroke-width="2" stroke-linecap="round" stroke-linejoin="round"/>
<path d="M9.00024 1C9.53068 1 10.0394 1.21071 10.4145 1.58579C10.7895 1.96086 11.0002 2.46957 11.0002 3V4H7.00024V3C7.00024 2.46957 7.21096 1.96086 7.58603 1.58579C7.9611 1.21071 8.46981 1 9.00024 1Z" stroke="white" stroke-width="2" stroke-linecap="round" stroke-linejoin="round"/>
</svg>
