<svg width="78" height="34" viewBox="0 0 78 34" fill="none" xmlns="http://www.w3.org/2000/svg">
<path d="M23.109 33.456C22.941 33.456 22.9037 33.3253 22.997 33.064C23.109 32.8213 23.2117 32.5973 23.305 32.392C23.473 32.056 23.557 31.5333 23.557 30.824C23.557 30.208 23.445 29.5453 23.221 28.836C22.997 28.1267 22.5584 27.4827 21.905 26.904C21.009 26.0827 20.001 25.4293 18.881 24.944C17.761 24.4587 16.585 24.0667 15.353 23.768C14.1397 23.4693 12.9357 23.208 11.741 22.984C11.013 23.992 10.229 24.8973 9.38903 25.7C8.5677 26.5027 7.69036 27.1187 6.75703 27.548C6.23436 27.7907 5.73036 27.968 5.24503 28.08C4.7597 28.2107 4.30236 28.276 3.87303 28.276C2.8277 28.276 1.96903 27.996 1.29703 27.436C0.643698 26.8947 0.317031 26.2507 0.317031 25.504C0.317031 24.7947 0.634365 24.104 1.26903 23.432C1.92236 22.7413 2.9957 22.172 4.48903 21.724C5.08636 21.556 5.74903 21.4347 6.47703 21.36C7.20503 21.2667 7.96103 21.22 8.74503 21.22C9.23037 21.22 9.70637 21.2387 10.173 21.276C10.6584 21.2947 11.1064 21.3507 11.517 21.444C12.0584 20.6227 12.5624 19.7733 13.029 18.896C13.4957 18 13.981 17.0293 14.485 15.984C13.0104 16.0213 11.7317 15.8067 10.649 15.34C9.56637 14.8547 8.72637 14.2107 8.12903 13.408C7.55037 12.6053 7.26103 11.7467 7.26103 10.832C7.26103 10.0853 7.4757 9.35733 7.90503 8.648C8.33436 7.92 9.00636 7.26667 9.92103 6.688C10.8544 6.09067 12.0397 5.624 13.477 5.288C13.5704 5.25067 13.6544 5.232 13.729 5.232C13.8224 5.232 13.9064 5.232 13.981 5.232C14.261 5.232 14.401 5.288 14.401 5.4C14.401 5.58667 14.1024 5.71733 13.505 5.792C12.5344 5.904 11.6757 6.24933 10.929 6.828C10.201 7.40667 9.6317 8.09733 9.22103 8.9C8.82903 9.70267 8.63303 10.5147 8.63303 11.336C8.63303 12.0453 8.80103 12.708 9.13703 13.324C9.47303 13.94 10.005 14.444 10.733 14.836C11.461 15.2093 12.4037 15.396 13.561 15.396C13.9717 15.396 14.4104 15.368 14.877 15.312C14.9517 15.1627 15.073 14.864 15.241 14.416C15.4277 13.9493 15.633 13.4267 15.857 12.848C16.081 12.2693 16.2957 11.7093 16.501 11.168C16.725 10.6267 16.9024 10.1787 17.033 9.824C17.1824 9.45067 17.257 9.264 17.257 9.264C18.1157 7.11733 18.993 5.43733 19.889 4.224C20.8037 2.992 21.681 2.124 22.521 1.62C23.3797 1.116 24.145 0.863999 24.817 0.863999C25.545 0.863999 26.1424 1.07867 26.609 1.508C27.0944 1.93733 27.3557 2.42267 27.393 2.964C27.4117 3.132 27.421 3.25333 27.421 3.328C27.421 3.40267 27.421 3.496 27.421 3.608C27.421 4.70933 27.197 5.81067 26.749 6.912C26.3197 8.01333 25.713 9.05867 24.929 10.048C24.1637 11.0373 23.277 11.9333 22.269 12.736C21.2797 13.5387 20.2157 14.2107 19.077 14.752C17.957 15.2933 16.8184 15.6667 15.661 15.872C15.381 16.432 15.129 16.936 14.905 17.384C14.6997 17.8133 14.4664 18.28 14.205 18.784C13.9437 19.288 13.5984 19.932 13.169 20.716C13.0384 20.9587 12.9357 21.136 12.861 21.248C12.805 21.3413 12.7117 21.4907 12.581 21.696C13.5144 21.92 14.5317 22.2373 15.633 22.648C16.7344 23.04 17.817 23.516 18.881 24.076C19.9637 24.6173 20.925 25.2147 21.765 25.868C22.8104 26.6707 23.5477 27.576 23.977 28.584C24.425 29.592 24.649 30.4787 24.649 31.244C24.649 31.7853 24.565 32.196 24.397 32.476C24.1544 32.8867 23.9117 33.148 23.669 33.26C23.4264 33.3907 23.2397 33.456 23.109 33.456ZM16.053 15.116C17.3224 14.836 18.5637 14.332 19.777 13.604C20.9904 12.8573 22.0824 11.9613 23.053 10.916C24.0237 9.852 24.7984 8.704 25.377 7.472C25.9557 6.22133 26.245 4.952 26.245 3.664C26.245 3.34667 26.161 3.08533 25.993 2.88C25.825 2.67467 25.5824 2.572 25.265 2.572C24.8357 2.572 24.285 2.81467 23.613 3.3C22.941 3.76667 22.1757 4.56 21.317 5.68C20.4584 6.78133 19.5344 8.30267 18.545 10.244C18.545 10.244 18.4144 10.4867 18.153 10.972C17.9104 11.4573 17.593 12.0733 17.201 12.82C16.8277 13.548 16.445 14.3133 16.053 15.116ZM3.48103 27.464C3.8917 27.464 4.33036 27.408 4.79703 27.296C5.28236 27.184 5.78636 27.0067 6.30903 26.764C7.87703 25.9987 9.3237 24.6733 10.649 22.788C10.2197 22.6947 9.7717 22.6293 9.30503 22.592C8.83836 22.536 8.36236 22.508 7.87703 22.508C7.37303 22.508 6.85036 22.536 6.30903 22.592C5.78636 22.648 5.27303 22.7507 4.76903 22.9C3.51836 23.236 2.55703 23.6653 1.88503 24.188C1.2317 24.7107 0.905031 25.2427 0.905031 25.784C0.905031 26.2507 1.13836 26.6427 1.60503 26.96C2.0717 27.296 2.69703 27.464 3.48103 27.464ZM28.116 25.084C27.9107 25.1027 27.6773 25.056 27.416 24.944C27.1547 24.832 26.9213 24.6267 26.716 24.328C26.5293 24.0293 26.436 23.6093 26.436 23.068C26.436 22.62 26.52 22.0787 26.688 21.444C26.464 21.7987 26.1747 22.2373 25.82 22.76C25.4653 23.264 25.0827 23.712 24.672 24.104C24.3173 24.44 23.9813 24.6827 23.664 24.832C23.3467 24.9813 23.0573 25.056 22.796 25.056C22.3107 25.056 21.9187 24.8413 21.62 24.412C21.3213 23.964 21.172 23.3853 21.172 22.676C21.172 21.9293 21.3587 21.08 21.732 20.128C22.1053 19.176 22.712 18.1867 23.552 17.16C24.0933 16.5067 24.7467 15.984 25.512 15.592C26.296 15.1813 27.0613 14.976 27.808 14.976C28.2373 14.976 28.648 15.0507 29.04 15.2C29.432 15.3307 29.7773 15.5547 30.076 15.872C30.2067 16.0027 30.272 16.152 30.272 16.32C30.272 16.432 30.2253 16.5253 30.132 16.6C30.0387 16.6747 29.9173 16.6933 29.768 16.656C29.5627 16.0027 29.124 15.676 28.452 15.676C28.1347 15.676 27.7707 15.7787 27.36 15.984C26.7253 16.32 26.0627 16.8707 25.372 17.636C24.7 18.4013 24.112 19.1947 23.608 20.016C23.5333 20.128 23.412 20.3427 23.244 20.66C23.0947 20.9773 22.9453 21.332 22.796 21.724C22.6467 22.116 22.544 22.4987 22.488 22.872C22.4693 22.984 22.46 23.068 22.46 23.124C22.46 23.1613 22.46 23.2267 22.46 23.32C22.46 23.936 22.6933 24.244 23.16 24.244C23.72 24.244 24.3547 23.8333 25.064 23.012C25.5493 22.4147 25.988 21.7893 26.38 21.136C26.772 20.4827 27.1733 19.7827 27.584 19.036C27.864 18.532 28.1253 18.112 28.368 17.776C28.6107 17.44 28.956 17.272 29.404 17.272C29.6093 17.272 29.8147 17.3 30.02 17.356C30.2253 17.412 30.44 17.4213 30.664 17.384C30.5147 17.5333 30.3093 17.8133 30.048 18.224C29.8053 18.6347 29.544 19.1013 29.264 19.624C28.984 20.1467 28.732 20.6787 28.508 21.22C28.284 21.7613 28.1253 22.228 28.032 22.62C28.0133 22.732 27.9853 22.8907 27.948 23.096C27.9293 23.3013 27.92 23.4507 27.92 23.544C27.92 24.0667 28.0693 24.328 28.368 24.328C28.6667 24.328 28.984 24.1507 29.32 23.796C29.6747 23.4413 30.02 23.0027 30.356 22.48C30.692 21.9573 31 21.4347 31.28 20.912C31.56 20.3707 31.784 19.932 31.952 19.596C32.0267 19.4093 32.1387 19.316 32.288 19.316C32.3813 19.316 32.428 19.3813 32.428 19.512C32.428 19.568 32.4 19.6707 32.344 19.82C32.12 20.2867 31.8493 20.8187 31.532 21.416C31.2147 21.9947 30.8693 22.564 30.496 23.124C30.1227 23.6653 29.7307 24.1227 29.32 24.496C28.928 24.8507 28.5267 25.0467 28.116 25.084ZM32.5558 25.112C31.6411 25.112 30.9878 24.8787 30.5958 24.412C30.2224 23.9267 30.0357 23.4227 30.0357 22.9C30.0357 22.4707 30.1384 22.0787 30.3438 21.724C30.5678 21.3693 30.8291 21.1827 31.1278 21.164C31.5011 20.436 31.9024 19.6427 32.3318 18.784C32.7798 17.9253 33.1904 17.0947 33.5638 16.292C33.8251 15.7507 34.1518 15.228 34.5438 14.724C34.9544 14.22 35.4024 13.9307 35.8878 13.856H36.1678C36.3171 13.856 36.4478 13.8653 36.5598 13.884C36.6904 13.9027 36.8211 13.94 36.9518 13.996C37.1571 14.0893 37.2598 14.2293 37.2598 14.416C37.2598 14.528 37.1944 14.584 37.0638 14.584C37.0078 14.584 36.9331 14.556 36.8398 14.5C36.6158 14.4067 36.4198 14.36 36.2518 14.36C36.1398 14.36 36.0371 14.388 35.9438 14.444C35.5891 14.6307 35.3371 14.892 35.1878 15.228C35.0571 15.564 34.9918 15.9187 34.9918 16.292C34.9918 16.5907 35.0198 16.8987 35.0758 17.216C35.1504 17.5147 35.2344 17.7853 35.3278 18.028C35.5331 18.5507 35.7478 19.064 35.9718 19.568C36.2144 20.072 36.3358 20.6133 36.3358 21.192C36.3358 21.752 36.1491 22.3493 35.7758 22.984C35.4024 23.6 34.9264 24.0947 34.3478 24.468L34.5438 24.496C34.6371 24.5147 34.7024 24.524 34.7398 24.524C34.7771 24.524 34.8051 24.524 34.8238 24.524C35.2531 24.524 35.6544 24.4027 36.0278 24.16C36.4198 23.8987 36.7651 23.5813 37.0638 23.208C37.3624 22.8347 37.6984 22.312 38.0718 21.64C38.4638 20.968 38.8371 20.2587 39.1918 19.512C39.2478 19.4187 39.3131 19.372 39.3878 19.372C39.4811 19.372 39.5464 19.4093 39.5838 19.484C39.6398 19.54 39.6491 19.6147 39.6118 19.708C39.3691 20.2307 39.0891 20.8 38.7718 21.416C38.4731 22.0133 38.1278 22.592 37.7357 23.152C37.3438 23.6933 36.8864 24.1413 36.3638 24.496C35.8598 24.832 35.2904 25 34.6558 25C34.5064 25 34.3478 24.9907 34.1798 24.972C34.0118 24.9533 33.8438 24.916 33.6758 24.86C33.4891 24.9347 33.2931 24.9907 33.0878 25.028C32.9011 25.084 32.7238 25.112 32.5558 25.112ZM33.3958 24.272C33.7131 24.0107 33.9931 23.628 34.2358 23.124C34.4971 22.62 34.6278 21.9573 34.6278 21.136C34.6278 20.408 34.5531 19.6333 34.4038 18.812C34.2544 17.9907 34.1798 17.2627 34.1798 16.628C34.1798 16.4973 34.1798 16.3853 34.1798 16.292C34.1984 16.18 34.2171 16.0773 34.2358 15.984C33.9931 16.488 33.7131 17.076 33.3958 17.748C33.0784 18.4013 32.7611 19.036 32.4438 19.652C32.1264 20.268 31.8558 20.7907 31.6318 21.22C31.6318 21.22 31.6784 21.2293 31.7718 21.248C31.8838 21.248 31.9864 21.3133 32.0798 21.444C32.1731 21.556 32.2104 21.7893 32.1917 22.144C32.1731 22.6107 32.2758 23.0493 32.4998 23.46C32.7424 23.852 33.0411 24.1227 33.3958 24.272ZM32.3318 24.664C32.4438 24.664 32.5464 24.6547 32.6398 24.636C32.7331 24.5987 32.8171 24.5707 32.8918 24.552C32.6118 24.3467 32.3598 24.076 32.1358 23.74C31.9304 23.3853 31.8091 22.9373 31.7718 22.396C31.4358 22.7507 31.2677 23.1333 31.2677 23.544C31.2677 23.8427 31.3611 24.104 31.5478 24.328C31.7344 24.552 31.9958 24.664 32.3318 24.664ZM40.4752 25C39.9525 25 39.4858 24.8227 39.0752 24.468C38.6645 24.0947 38.4592 23.516 38.4592 22.732C38.4592 22.116 38.5712 21.36 38.7952 20.464C39.0378 19.5493 39.3272 18.6067 39.6632 17.636C40.0178 16.6467 40.3632 15.7507 40.6992 14.948H39.2152C39.0845 14.948 39.0192 14.8547 39.0192 14.668C39.0192 14.5747 39.0378 14.4907 39.0752 14.416C39.1312 14.3413 39.2058 14.304 39.2992 14.304H40.9792C41.2965 13.5947 41.6325 12.904 41.9872 12.232C42.3418 11.56 42.6872 10.9253 43.0232 10.328C43.4525 9.58133 43.9098 9.02133 44.3952 8.648C44.8805 8.27467 45.3005 8.088 45.6552 8.088C45.9352 8.088 46.1685 8.2 46.3552 8.424C46.5418 8.62933 46.6352 8.94667 46.6352 9.376C46.6352 9.63733 46.5792 10.0013 46.4672 10.468C46.3552 10.916 46.1778 11.392 45.9352 11.896C45.8045 12.1573 45.6178 12.5307 45.3752 13.016C45.1512 13.5013 44.9272 13.9307 44.7032 14.304H46.0472C46.1778 14.304 46.2432 14.3973 46.2432 14.584C46.2432 14.6587 46.2245 14.7427 46.1872 14.836C46.1498 14.9107 46.0938 14.948 46.0192 14.948H44.3672C43.9005 15.7507 43.3685 16.5347 42.7712 17.3C42.1738 18.0653 41.4645 18.8307 40.6432 19.596C40.5872 19.764 40.5125 20.0067 40.4192 20.324C40.3445 20.6413 40.2698 20.968 40.1952 21.304C40.1392 21.6213 40.0832 21.892 40.0272 22.116C39.9898 22.34 39.9712 22.452 39.9712 22.452C39.9152 22.6947 39.8872 22.9187 39.8872 23.124C39.8872 23.516 39.9805 23.8053 40.1672 23.992C40.3538 24.16 40.5685 24.244 40.8112 24.244C40.9605 24.244 41.1098 24.2253 41.2592 24.188C41.4085 24.132 41.5765 24.0387 41.7632 23.908C42.4165 23.4413 42.9858 22.8067 43.4712 22.004C43.9752 21.2013 44.4138 20.4267 44.7872 19.68C44.8992 19.456 45.0112 19.344 45.1232 19.344C45.1978 19.344 45.2352 19.4 45.2352 19.512C45.2352 19.568 45.2072 19.6707 45.1512 19.82C44.7405 20.6787 44.3952 21.3693 44.1152 21.892C43.8352 22.4147 43.5645 22.8533 43.3032 23.208C43.0418 23.544 42.7338 23.88 42.3792 24.216C42.1178 24.4773 41.8192 24.6733 41.4832 24.804C41.1472 24.9347 40.8112 25 40.4752 25ZM42.6872 14.304H44.1152C44.3765 13.8187 44.6192 13.3427 44.8432 12.876C45.0858 12.4093 45.3005 11.9427 45.4872 11.476C45.6178 11.1773 45.7298 10.8413 45.8232 10.468C45.9165 10.0947 45.9632 9.80533 45.9632 9.6C45.9632 9.32 45.8978 9.18 45.7672 9.18C45.6738 9.18 45.5338 9.264 45.3472 9.432C45.1792 9.58133 44.9645 9.84267 44.7032 10.216C44.3672 10.6827 44.0312 11.2893 43.6952 12.036C43.3778 12.764 43.0418 13.52 42.6872 14.304ZM40.8672 18.7C41.4085 18.14 41.9125 17.5427 42.3792 16.908C42.8645 16.2733 43.3125 15.62 43.7232 14.948H42.4072C42.1085 15.6387 41.8285 16.3107 41.5672 16.964C41.3058 17.6173 41.0725 18.196 40.8672 18.7Z" fill="#C2970C"/>
<path d="M60.5586 16.8906V19.8906H44.1523L44.0273 17.625L53.8398 2.25H56.8555L53.5898 7.84375L47.9492 16.8906H60.5586ZM57.7148 2.25V25H53.9492V2.25H57.7148ZM77.9023 11.7188V15.4375C77.9023 17.2188 77.7253 18.7396 77.3711 20C77.0273 21.25 76.5273 22.2656 75.8711 23.0469C75.2148 23.8281 74.4284 24.401 73.5117 24.7656C72.6055 25.1302 71.5898 25.3125 70.4648 25.3125C69.569 25.3125 68.7357 25.1979 67.9648 24.9688C67.2044 24.7396 66.5169 24.3802 65.9023 23.8906C65.2878 23.401 64.7617 22.7708 64.3242 22C63.8971 21.2188 63.5638 20.2865 63.3242 19.2031C63.0951 18.1198 62.9805 16.8646 62.9805 15.4375V11.7188C62.9805 9.92708 63.1576 8.41667 63.5117 7.1875C63.8659 5.94792 64.3711 4.94271 65.0273 4.17188C65.6836 3.39062 66.4648 2.82292 67.3711 2.46875C68.2878 2.11458 69.3086 1.9375 70.4336 1.9375C71.3398 1.9375 72.1732 2.05208 72.9336 2.28125C73.7044 2.5 74.3919 2.84896 74.9961 3.32812C75.6107 3.80729 76.1315 4.43229 76.5586 5.20312C76.9961 5.96354 77.3294 6.88542 77.5586 7.96875C77.7878 9.04167 77.9023 10.2917 77.9023 11.7188ZM74.1367 15.9688V11.1562C74.1367 10.25 74.0846 9.45312 73.9805 8.76562C73.8763 8.06771 73.7201 7.47917 73.5117 7C73.3138 6.51042 73.0638 6.11458 72.7617 5.8125C72.4596 5.5 72.1159 5.27604 71.7305 5.14062C71.3451 4.99479 70.9128 4.92188 70.4336 4.92188C69.8503 4.92188 69.3294 5.03646 68.8711 5.26562C68.4128 5.48438 68.0273 5.83854 67.7148 6.32812C67.4023 6.81771 67.1628 7.46354 66.9961 8.26562C66.8398 9.05729 66.7617 10.0208 66.7617 11.1562V15.9688C66.7617 16.8854 66.8138 17.6927 66.918 18.3906C67.0221 19.0885 67.1784 19.6875 67.3867 20.1875C67.5951 20.6771 67.8451 21.0833 68.1367 21.4062C68.4388 21.7188 68.7826 21.9479 69.168 22.0938C69.5638 22.2396 69.9961 22.3125 70.4648 22.3125C71.0586 22.3125 71.5846 22.1979 72.043 21.9688C72.5013 21.7396 72.8867 21.375 73.1992 20.875C73.5117 20.3646 73.7461 19.7031 73.9023 18.8906C74.0586 18.0781 74.1367 17.1042 74.1367 15.9688Z" fill="white"/>
</svg>
