<svg width="13" height="18" viewBox="0 0 13 18" fill="none" xmlns="http://www.w3.org/2000/svg">
<path d="M0.886364 2.4C0.651367 2.39973 0.42607 2.30482 0.259902 2.1361C0.0937338 1.96738 0.000264168 1.73861 9.53674e-07 1.5V0H1.18182V1.2H7.68182C7.91682 1.20027 8.14211 1.29518 8.30828 1.4639C8.47445 1.63262 8.56792 1.86139 8.56818 2.1V3.6H9.72692C10.5947 3.60099 11.4266 3.95146 12.0403 4.57451C12.6539 5.19756 12.999 6.04231 13 6.92344V12.9214C13 15.7218 10.7563 18 7.99836 18H7.95618C5.19826 18 2.95455 15.7218 2.95455 12.9214V6.92344C2.95552 6.04231 3.30068 5.19756 3.91429 4.57451C4.5279 3.95146 5.35985 3.60099 6.22763 3.6H7.38636V2.4H0.886364ZM11.8182 6.92344C11.8176 6.36046 11.597 5.82073 11.205 5.42264C10.8129 5.02456 10.2814 4.80064 9.72692 4.8H8.56818V8.1H11.8182V6.92344ZM4.13636 12.9214C4.1375 13.9497 4.54031 14.9356 5.25642 15.6627C5.97253 16.3898 6.94345 16.7988 7.95618 16.8H7.99836C9.01109 16.7988 9.98202 16.3898 10.6981 15.6627C11.4142 14.9356 11.817 13.9497 11.8182 12.9214V9.3H4.13636V12.9214ZM6.22763 4.8C5.67318 4.80064 5.14162 5.02456 4.74957 5.42264C4.35752 5.82073 4.13699 6.36046 4.13636 6.92344V8.1H7.38636V4.8H6.22763Z" fill="white"/>
</svg>
