<svg width="126" height="168" viewBox="0 0 126 168" fill="none" xmlns="http://www.w3.org/2000/svg">
<path d="M91.5254 122.473C91.5254 116.164 89.2988 111.34 84.8457 108C80.3926 104.586 72.377 101.023 60.7988 97.3125C49.2207 93.5273 40.0547 89.8164 33.3008 86.1797C14.8945 76.2344 5.69141 62.8379 5.69141 45.9902C5.69141 37.2324 8.14062 29.4395 13.0391 22.6113C18.0117 15.709 25.0996 10.3281 34.3027 6.46875C43.5801 2.60937 53.9707 0.679688 65.4746 0.679688C77.0527 0.679688 87.3691 2.79492 96.4238 7.02539C105.479 11.1816 112.492 17.082 117.465 24.7266C122.512 32.3711 125.035 41.0547 125.035 50.7773H91.6367C91.6367 43.3555 89.2988 37.6035 84.623 33.5215C79.9473 29.3652 73.3789 27.2871 64.918 27.2871C56.7539 27.2871 50.4082 29.0313 45.8809 32.5195C41.3535 35.9336 39.0898 40.4609 39.0898 46.1016C39.0898 51.3711 41.7246 55.7871 46.9941 59.3496C52.3379 62.9121 60.168 66.252 70.4844 69.3691C89.4844 75.084 103.326 82.1719 112.01 90.6328C120.693 99.0938 125.035 109.633 125.035 122.25C125.035 136.277 119.729 147.299 109.115 155.314C98.502 163.256 84.2148 167.227 66.2539 167.227C53.7852 167.227 42.4297 164.963 32.1875 160.436C21.9453 155.834 14.1152 149.562 8.69727 141.621C3.35352 133.68 0.681641 124.477 0.681641 114.012H34.1914C34.1914 131.898 44.8789 140.842 66.2539 140.842C74.1953 140.842 80.3926 139.246 84.8457 136.055C89.2988 132.789 91.5254 128.262 91.5254 122.473Z" fill="white"/>
</svg>
