<svg width="80" height="80" viewBox="0 0 80 80" fill="none" xmlns="http://www.w3.org/2000/svg">
<path d="M70.0685 15.5763C70.0056 15.1742 69.605 14.9517 69.274 14.9272C68.9436 14.903 61.951 14.4472 61.951 14.4472C61.951 14.4472 57.0946 10.2076 56.5616 9.73831C56.0283 9.26932 54.9866 9.41197 54.5823 9.51662C54.5228 9.53204 53.5213 9.80385 51.8646 10.2547C50.2423 6.14971 47.3793 2.37743 42.3425 2.37743C42.2035 2.37743 42.0603 2.38239 41.9172 2.38955C40.4848 0.723723 38.7103 0 37.1776 0C25.4445 0 19.839 12.8979 18.0815 19.4521C13.5223 20.6944 10.2834 21.5776 9.86971 21.6919C7.32485 22.3938 7.24436 22.4643 6.91021 24.573C6.65873 26.1694 0 71.4514 0 71.4514L51.8862 80L79.9999 74.6519C79.9999 74.6519 70.1308 15.9784 70.0688 15.5763H70.0685ZM48.9969 11.0346L44.6064 12.2295C44.608 11.9574 44.6096 11.6897 44.6096 11.397C44.6096 8.84578 44.2068 6.79165 43.5608 5.16327C46.156 5.44968 47.8845 8.04632 48.9969 11.0346ZM40.3413 5.66916C41.0629 7.25898 41.532 9.54058 41.532 12.6194C41.532 12.777 41.5304 12.921 41.5289 13.0667C38.6737 13.8444 35.571 14.6887 32.4615 15.5358C34.2075 9.61053 37.4802 6.74869 40.3413 5.66916V5.66916ZM36.8554 2.76739C37.3618 2.76739 37.8719 2.91857 38.3602 3.21407C34.5999 4.77002 30.5693 8.6888 28.8672 16.5145L21.6999 18.4665C23.6936 12.4974 28.4275 2.76739 36.8551 2.76739H36.8554Z" fill="white"/>
<path d="M69.2742 14.9261C68.9438 14.9019 61.9512 14.4461 61.9512 14.4461C61.9512 14.4461 57.0948 10.2065 56.5618 9.73722C56.3623 9.56263 56.0933 9.47312 55.8121 9.43457L51.8889 79.9984L80.0001 74.6509C80.0001 74.6509 70.1307 15.9773 70.0687 15.5752C70.0058 15.1731 69.6052 14.9506 69.2742 14.9261Z" fill="#E0E0E0"/>
<path d="M42.3426 28.5864L38.8761 37.6538C38.8761 37.6538 35.8389 36.2284 32.1159 36.2284C26.6579 36.2284 26.3832 39.2403 26.3832 39.9993C26.3832 44.1406 38.6597 45.7274 38.6597 55.4277C38.6597 63.0596 33.155 67.9739 25.7328 67.9739C16.8261 67.9739 12.2712 63.0995 12.2712 63.0995L14.6561 56.1707C14.6561 56.1707 19.338 59.7053 23.2887 59.7053C25.8702 59.7053 26.9203 57.9181 26.9203 56.6122C26.9203 51.2101 16.8486 50.9692 16.8486 42.0925C16.8486 34.6215 22.9467 27.3917 35.2564 27.3917C39.9994 27.3917 42.3426 28.5864 42.3426 28.5864Z" fill="black"/>
</svg>
