<svg width="13" height="13" viewBox="0 0 13 13" fill="none" xmlns="http://www.w3.org/2000/svg">
<path d="M6.5 0C5.61364 0 4.92116 0.341766 4.42259 1.0253C3.92401 1.70883 3.67472 2.58259 3.67472 3.64658C3.66856 4.9685 4.07481 6.01637 4.89347 6.79018C4.99811 6.89335 5.03504 7.02555 5.00426 7.18676L4.7919 7.65104C4.7242 7.8058 4.62417 7.92671 4.49183 8.01377C4.35949 8.10082 4.08097 8.22495 3.65625 8.38616C3.63778 8.39261 3.24846 8.5248 2.48828 8.78274C1.7281 9.04068 1.32339 9.18254 1.27415 9.20833C0.757102 9.43403 0.418561 9.6694 0.258523 9.91443C0.0861742 10.3207 0 11.3492 0 13H13C13 11.3492 12.9138 10.3207 12.7415 9.91443C12.5814 9.6694 12.2429 9.43403 11.7259 9.20833C11.6766 9.18254 11.2719 9.04068 10.5117 8.78274C9.75154 8.5248 9.36222 8.39261 9.34375 8.38616C8.91903 8.22495 8.64051 8.10082 8.50817 8.01377C8.37583 7.92671 8.2758 7.8058 8.2081 7.65104L7.99574 7.18676C7.96496 7.02555 8.00189 6.89335 8.10653 6.79018C8.92519 6.01637 9.33144 4.9685 9.32528 3.64658C9.32528 2.58259 9.07599 1.70883 8.57741 1.0253C8.07883 0.341766 7.38636 0 6.5 0Z" fill="white"/>
</svg>
