<svg width="20" height="20" viewBox="0 0 20 20" fill="none" xmlns="http://www.w3.org/2000/svg">
<path d="M17.5171 3.89407C17.5014 3.79355 17.4013 3.73793 17.3185 3.7318C17.2359 3.72574 15.4878 3.6118 15.4878 3.6118C15.4878 3.6118 14.2737 2.55189 14.1404 2.43458C14.0071 2.31733 13.7467 2.35299 13.6456 2.37916C13.6307 2.38301 13.3803 2.45096 12.9661 2.56367C12.5606 1.53743 11.8448 0.594359 10.5856 0.594359C10.5509 0.594359 10.5151 0.595598 10.4793 0.597388C10.1212 0.180931 9.67758 0 9.29441 0C6.36113 0 4.95975 3.22446 4.52037 4.86303C3.38057 5.1736 2.57085 5.39439 2.46743 5.42296C1.83121 5.59845 1.81109 5.61608 1.72755 6.14324C1.66468 6.54235 0 17.8628 0 17.8628L12.9716 20L20 18.663C20 18.663 17.5327 3.99459 17.5172 3.89407H17.5171ZM12.2492 2.75864L11.1516 3.05737C11.152 2.98935 11.1524 2.92243 11.1524 2.84925C11.1524 2.21144 11.0517 1.69791 10.8902 1.29082C11.539 1.36242 11.9711 2.01158 12.2492 2.75864ZM10.0853 1.41729C10.2657 1.81475 10.383 2.38515 10.383 3.15486C10.383 3.19424 10.3826 3.23025 10.3822 3.26667C9.66842 3.46109 8.89276 3.67218 8.11538 3.88395C8.55187 2.40263 9.37004 1.68717 10.0853 1.41729ZM9.21384 0.691846C9.34044 0.691846 9.46798 0.729643 9.59004 0.803517C8.64997 1.1925 7.64233 2.1722 7.2168 4.12863L5.42497 4.61662C5.92339 3.12436 7.10688 0.691846 9.21376 0.691846H9.21384Z" fill="#95BF46"/>
<path d="M17.3185 3.73153C17.2359 3.72547 15.4877 3.61153 15.4877 3.61153C15.4877 3.61153 14.2736 2.55162 14.1404 2.43431C14.0905 2.39066 14.0233 2.36828 13.953 2.35864L12.9722 19.9996L20 18.6627C20 18.6627 17.5326 3.99432 17.5171 3.8938C17.5014 3.79328 17.4012 3.73765 17.3185 3.73153Z" fill="#5E8E3E"/>
<path d="M10.5857 7.14656L9.71908 9.41343C9.71908 9.41343 8.95979 9.05707 8.02903 9.05707C6.66453 9.05707 6.59587 9.81005 6.59587 9.9998C6.59587 11.0351 9.66498 11.4318 9.66498 13.8569C9.66498 15.7649 8.28881 16.9934 6.43325 16.9934C4.20658 16.9934 3.06787 15.7748 3.06787 15.7748L3.66408 14.0426C3.66408 14.0426 4.83457 14.9263 5.82224 14.9263C6.46762 14.9263 6.73014 14.4795 6.73014 14.153C6.73014 12.8025 4.21221 12.7423 4.21221 10.5231C4.21221 8.65535 5.73675 6.8479 8.81416 6.8479C9.99992 6.8479 10.5857 7.14656 10.5857 7.14656Z" fill="white"/>
</svg>
