<svg width="150" height="20" viewBox="0 0 150 20" fill="none" xmlns="http://www.w3.org/2000/svg">
<path d="M21.4286 7.65517H13.25L10.7143 0L8.17857 7.65517H0L6.60714 12.3793L4.10714 20L10.7143 15.2759L17.3214 20L14.7857 12.3448L21.4286 7.65517Z" fill="#F7AB0E"/>
<path d="M53.5714 7.65517H45.3928L42.8571 0L40.3214 7.65517H32.1428L38.75 12.3793L36.25 20L42.8571 15.2759L49.4643 20L46.9285 12.3448L53.5714 7.65517Z" fill="#F7AB0E"/>
<path d="M85.7142 7.65517H77.5356L74.9999 0L72.4642 7.65517H64.2856L70.8928 12.3793L68.3928 20L74.9999 15.2759L81.6071 20L79.0714 12.3448L85.7142 7.65517Z" fill="#F7AB0E"/>
<path d="M117.857 7.65517H109.679L107.143 0L104.607 7.65517H96.4287L103.036 12.3793L100.536 20L107.143 15.2759L113.75 20L111.214 12.3448L117.857 7.65517Z" fill="#F7AB0E"/>
<path d="M150 7.65517H141.821L139.286 0L136.75 7.65517H128.571L135.178 12.3793L132.678 20L139.286 15.2759L145.893 20L143.357 12.3448L150 7.65517Z" fill="#F7AB0E"/>
</svg>
